<svg xmlns="http://www.w3.org/2000/svg" xmlns:xlink="http://www.w3.org/1999/xlink" width="210" height="32.445" viewBox="0 0 210 32.445">
  <defs>
    <linearGradient id="linear-gradient" x1="-0.005" y1="0.519" x2="1.01" y2="0.485" gradientUnits="objectBoundingBox">
      <stop offset="0.03" stop-color="#34578d"/>
      <stop offset="0.16" stop-color="#177aff"/>
      <stop offset="0.34" stop-color="#45ccff"/>
      <stop offset="0.4" stop-color="#4dceff"/>
      <stop offset="0.48" stop-color="#62d2fe"/>
      <stop offset="0.59" stop-color="#84d9fc"/>
      <stop offset="0.7" stop-color="#aee1fa"/>
      <stop offset="0.73" stop-color="#a1d6fb"/>
      <stop offset="0.8" stop-color="#7eb7fc"/>
      <stop offset="0.89" stop-color="#4587fe"/>
      <stop offset="0.92" stop-color="#2e73ff"/>
    </linearGradient>
  </defs>
  <g id="Group_1" data-name="Group 1" transform="translate(-758 119)">
    <path id="Path_5" data-name="Path 5" d="M159.274,32.068a5.353,5.353,0,0,0-3.145-.79,7.213,7.213,0,0,0-2.583.442,14.225,14.225,0,0,0-6.115-1.338,11.521,11.521,0,0,0-7.547,2.449,7.627,7.627,0,0,0-3,6.182v.147H136a6.423,6.423,0,0,0-4.576,1.686,5.152,5.152,0,0,0-1.807,3.907,7.775,7.775,0,0,0,2.369,5.072A23.175,23.175,0,0,1,134.2,52.5a3.252,3.252,0,0,1-1.5,4.617,5.152,5.152,0,0,1-2.154.415,2.542,2.542,0,0,1-1.686-.522,1.619,1.619,0,0,1-.629-1.338v-1.1a1.338,1.338,0,0,0-.455-.99,1.566,1.566,0,0,0-1.1-.428,1.646,1.646,0,0,0-1.231.522,1.847,1.847,0,0,0-.5,1.338,3.426,3.426,0,0,0,1.338,2.676A6.182,6.182,0,0,0,130.3,58.8a9.915,9.915,0,0,0,2.141-.227c1.338,2.81,3.934,4.229,7.868,4.229a13.77,13.77,0,0,0,8.792-2.69A8.484,8.484,0,0,0,152.6,53.2a6.771,6.771,0,0,0-.415-2.288,7.132,7.132,0,0,0,3.613-1.659,5.513,5.513,0,0,0,2.061-4.229,7.721,7.721,0,0,0-2.542-5.1,16.634,16.634,0,0,1-2.3-2.837,3.894,3.894,0,0,1-.375-1.111l.375-.843L153.935,33a2.127,2.127,0,0,1,.99-.241,3.011,3.011,0,0,1,2.208,1.485,4.282,4.282,0,0,0,.91.963,1.338,1.338,0,0,0,.749.2,1.539,1.539,0,0,0,1.124-.468,1.405,1.405,0,0,0,.482-1.071A2.221,2.221,0,0,0,159.274,32.068ZM147.431,59.648a6.865,6.865,0,0,1-4.63,1.539c-3.573,0-5.741-1.592-6.544-4.737a5.273,5.273,0,0,0,1.445-3.626,7.735,7.735,0,0,0-2.529-5.1,16.057,16.057,0,0,1-2.3-2.837,3.854,3.854,0,0,1-.455-1.807,2.422,2.422,0,0,1,.723-1.793,2.248,2.248,0,0,1,1.646-.709,3.011,3.011,0,0,1,2.275,1.472,4.135,4.135,0,0,0,.91.977,1.445,1.445,0,0,0,.6.174,32.343,32.343,0,0,0,3.841,3.68l2.77,2.235c2.676,2.181,4.014,4.362,4.014,6.57a4.978,4.978,0,0,1-1.766,3.961Zm6.892-14.987a3.158,3.158,0,0,1,.482,1.633,3.225,3.225,0,0,1-.522,1.7,3.185,3.185,0,0,1-1.445,1.338,4.523,4.523,0,0,1-1.231.348,13.127,13.127,0,0,0-3.212-3.613l-2.221-1.82a39.34,39.34,0,0,1-4.978-4.563,4.791,4.791,0,0,1-1.2-3.064q0-4.456,5.353-4.456a7.48,7.48,0,0,1,4.014.99,3.546,3.546,0,0,1,1.178,1.071,4.938,4.938,0,0,0-.789,2.676,7.8,7.8,0,0,0,2.369,5.085,20.851,20.851,0,0,1,2.208,2.676Z" transform="translate(633.051 -149.374)" fill="url(#linear-gradient)"/>
    <text id="ZAKIR_MAHOMEDY" data-name="ZAKIR MAHOMEDY" transform="translate(805 -96.371)" fill="#b6e7ef" font-size="16" font-family="JosefinSans-Regular, Josefin Sans" letter-spacing="0.04em"><tspan x="0" y="0">ZAKIR MAHOME</tspan><tspan y="0" letter-spacing="0.03em">D</tspan><tspan y="0">Y</tspan></text>
  </g>
</svg>
